# xmcd
#
# Track frame offsets: 
#        150
#        19870
#        28384
#        54004
#        89477
#        99858
#        110637
#        130002
#        143031
#        183530
#        194808
#        217314
#        229484
#        250100
#
# Disc length: 3578 seconds
#
# Revision: 1
# Processed by: cddbd v1.5.2PL0 Copyright (c) Steve Scherf et al.
# Submitted via: ExactAudioCopy v0.99pb5
#
DISCID=cf0df80e
DTITLE=California Guitar Trio - Highlights
DYEAR=2007
DGENRE=Acoustic
TTITLE0=Skyline
TTITLE1=Pipeline
TTITLE2=Bohemian Rhapsody
TTITLE3=Toccata and Fugue in D minor
TTITLE4=Sleepwalk
TTITLE5=Yamanashi Blues
TTITLE6=Merry Christmas Mr Lawrence
TTITLE7=Classical Gas
TTITLE8=Beethoven's Symphony n. 9
TTITLE9=The Good The Bad and The Ugly
TTITLE10=The Marsh
TTITLE11=Adagio Sostenuto, Moonlight Sonata
TTITLE12=Presto Agitato, Moonlight Sonata
TTITLE13=Eve
EXTD=
EXTT0=
EXTT1=
EXTT2=
EXTT3=
EXTT4=
EXTT5=
EXTT6=
EXTT7=
EXTT8=
EXTT9=
EXTT10=
EXTT11=
EXTT12=
EXTT13=
PLAYORDER=
